<?xml version="1.0" encoding="UTF-8"?>
<svg width="24" height="24" viewBox="0 0 24 24" fill="none" xmlns="http://www.w3.org/2000/svg">
  <path d="M19.59 6.69A4.83 4.83 0 0 1 23.5 12V12.5H19.5V12C19.5 10.07 17.93 8.5 16 8.5C14.07 8.5 12.5 10.07 12.5 12C12.5 13.93 14.07 15.5 16 15.5C16.17 15.5 16.34 15.49 16.5 15.47V19.5C16.34 19.5 16.17 19.5 16 19.5C11.86 19.5 8.5 16.14 8.5 12C8.5 7.86 11.86 4.5 16 4.5C16.17 4.5 16.34 4.51 16.5 4.52V8.5C16.34 8.5 16.17 8.5 16 8.5C14.07 8.5 12.5 10.07 12.5 12C12.5 13.93 14.07 15.5 16 15.5C17.93 15.5 19.5 13.93 19.5 12V6.69Z" fill="currentColor"/>
</svg>





