<?xml version="1.0" encoding="UTF-8"?>
<svg width="24" height="24" viewBox="0 0 24 24" fill="none" xmlns="http://www.w3.org/2000/svg">
  <path d="M7.5 8.5H12.5C13.33 8.5 14.1 8.78 14.71 9.25C14.43 8.78 14.5 8 14.5 8H9.5C8.67 8 7.9 8.28 7.29 8.75C7.57 8.28 7.5 8.5 7.5 8.5Z" fill="#0070BA"/>
  <path d="M12 12.5C12 10.57 13.57 9 15.5 9C16.33 9 17.1 9.28 17.71 9.75C17.43 9.28 17.5 8.5 17.5 8.5H12.5C11.67 8.5 10.9 8.78 10.29 9.25C10.57 8.78 10.5 8.5 10.5 8.5H5.5C5.5 8.5 5.57 9.28 5.29 9.75C5.9 9.28 6.67 9 7.5 9C9.43 9 11 10.57 11 12.5C11 14.43 9.43 16 7.5 16H5.5L4.5 23H9.5L10.5 16H12.5C14.43 16 16 14.43 16 12.5C16 10.57 14.43 9 12.5 9C10.57 9 9 10.57 9 12.5C9 14.43 10.57 16 12.5 16H17.5L18.5 9H15.5C13.57 9 12 10.57 12 12.5Z" fill="#0070BA"/>
</svg>




